<mxfile host="app.diagrams.net" modified="2023-03-26T16:27:50.425Z" agent="Mozilla/5.0 (Windows NT 10.0; Win64; x64) AppleWebKit/537.36 (KHTML, like Gecko) Chrome/111.0.0.0 Safari/537.36" etag="3eFSneLb0U8LlWHSthc7" version="21.1.1" type="google">
  <diagram name="Страница 1" id="zpdaVMPnuJQ0aeKoGJYF">
    <mxGraphModel grid="1" page="1" gridSize="10" guides="1" tooltips="1" connect="1" arrows="1" fold="1" pageScale="1" pageWidth="827" pageHeight="1169" math="0" shadow="0">
      <root>
        <mxCell id="0" />
        <mxCell id="1" parent="0" />
        <mxCell id="E_QFCJGcuhrLYFzaWxKr-2" value="" style="endArrow=none;html=1;rounded=0;" edge="1" parent="1" target="E_QFCJGcuhrLYFzaWxKr-3">
          <mxGeometry width="50" height="50" relative="1" as="geometry">
            <mxPoint x="160" y="360" as="sourcePoint" />
            <mxPoint x="440" y="80" as="targetPoint" />
          </mxGeometry>
        </mxCell>
        <mxCell id="E_QFCJGcuhrLYFzaWxKr-3" value="" style="rounded=0;whiteSpace=wrap;html=1;rotation=-45;fillColor=#000000;" vertex="1" parent="1">
          <mxGeometry x="190" y="290" width="50" height="30" as="geometry" />
        </mxCell>
        <mxCell id="E_QFCJGcuhrLYFzaWxKr-4" value="" style="rounded=0;whiteSpace=wrap;html=1;rotation=-45;fillColor=#000000;" vertex="1" parent="1">
          <mxGeometry x="270" y="210" width="50" height="30" as="geometry" />
        </mxCell>
        <mxCell id="E_QFCJGcuhrLYFzaWxKr-7" value="" style="endArrow=classic;html=1;rounded=0;exitX=1;exitY=0.5;exitDx=0;exitDy=0;" edge="1" parent="1" source="E_QFCJGcuhrLYFzaWxKr-3">
          <mxGeometry width="50" height="50" relative="1" as="geometry">
            <mxPoint x="310" y="210" as="sourcePoint" />
            <mxPoint x="360" y="160" as="targetPoint" />
          </mxGeometry>
        </mxCell>
        <mxCell id="E_QFCJGcuhrLYFzaWxKr-8" value="" style="shape=parallelogram;perimeter=parallelogramPerimeter;whiteSpace=wrap;html=1;fixedSize=1;size=200;" vertex="1" parent="1">
          <mxGeometry x="280" y="320" width="360" height="200" as="geometry" />
        </mxCell>
        <mxCell id="E_QFCJGcuhrLYFzaWxKr-9" value="" style="shape=parallelogram;perimeter=parallelogramPerimeter;whiteSpace=wrap;html=1;fixedSize=1;size=80;fillStyle=auto;fillColor=#C4C4C4;" vertex="1" parent="1">
          <mxGeometry x="340" y="380" width="240" height="80" as="geometry" />
        </mxCell>
        <mxCell id="E_QFCJGcuhrLYFzaWxKr-10" value="" style="endArrow=none;html=1;rounded=0;exitX=0.5;exitY=1;exitDx=0;exitDy=0;entryX=0.25;entryY=1;entryDx=0;entryDy=0;" edge="1" parent="1" source="E_QFCJGcuhrLYFzaWxKr-3" target="E_QFCJGcuhrLYFzaWxKr-9">
          <mxGeometry width="50" height="50" relative="1" as="geometry">
            <mxPoint x="560" y="340" as="sourcePoint" />
            <mxPoint x="610" y="290" as="targetPoint" />
          </mxGeometry>
        </mxCell>
        <mxCell id="E_QFCJGcuhrLYFzaWxKr-11" value="" style="endArrow=none;html=1;rounded=0;exitX=0.5;exitY=1;exitDx=0;exitDy=0;entryX=0.5;entryY=0;entryDx=0;entryDy=0;" edge="1" parent="1" source="E_QFCJGcuhrLYFzaWxKr-3" target="E_QFCJGcuhrLYFzaWxKr-9">
          <mxGeometry width="50" height="50" relative="1" as="geometry">
            <mxPoint x="236" y="326" as="sourcePoint" />
            <mxPoint x="410" y="470" as="targetPoint" />
          </mxGeometry>
        </mxCell>
        <mxCell id="E_QFCJGcuhrLYFzaWxKr-12" value="" style="endArrow=none;html=1;rounded=0;exitX=0.5;exitY=1;exitDx=0;exitDy=0;endSize=6;strokeWidth=1;strokeColor=default;" edge="1" parent="1" source="E_QFCJGcuhrLYFzaWxKr-4">
          <mxGeometry width="50" height="50" relative="1" as="geometry">
            <mxPoint x="570" y="330" as="sourcePoint" />
            <mxPoint x="400" y="460" as="targetPoint" />
          </mxGeometry>
        </mxCell>
        <mxCell id="E_QFCJGcuhrLYFzaWxKr-13" value="" style="endArrow=none;html=1;rounded=0;exitX=0.5;exitY=1;exitDx=0;exitDy=0;endSize=6;strokeWidth=1;strokeColor=default;" edge="1" parent="1" source="E_QFCJGcuhrLYFzaWxKr-4">
          <mxGeometry width="50" height="50" relative="1" as="geometry">
            <mxPoint x="316" y="246" as="sourcePoint" />
            <mxPoint x="460" y="380" as="targetPoint" />
          </mxGeometry>
        </mxCell>
        <mxCell id="E_QFCJGcuhrLYFzaWxKr-16" value="&lt;font style=&quot;font-size: 18px;&quot;&gt;t&lt;sub&gt;1&lt;/sub&gt;&lt;/font&gt;" style="text;html=1;strokeColor=none;fillColor=none;align=center;verticalAlign=middle;whiteSpace=wrap;rounded=0;" vertex="1" parent="1">
          <mxGeometry x="150" y="270" width="60" height="30" as="geometry" />
        </mxCell>
        <mxCell id="E_QFCJGcuhrLYFzaWxKr-17" value="&lt;font style=&quot;font-size: 18px;&quot;&gt;t&lt;sub&gt;2&lt;/sub&gt;&lt;/font&gt;" style="text;html=1;strokeColor=none;fillColor=none;align=center;verticalAlign=middle;whiteSpace=wrap;rounded=0;" vertex="1" parent="1">
          <mxGeometry x="240" y="190" width="60" height="30" as="geometry" />
        </mxCell>
        <mxCell id="E_QFCJGcuhrLYFzaWxKr-19" value="&lt;font style=&quot;font-size: 18px;&quot;&gt;Направление движения&lt;/font&gt;" style="text;html=1;strokeColor=none;fillColor=none;align=center;verticalAlign=middle;whiteSpace=wrap;rounded=0;" vertex="1" parent="1">
          <mxGeometry x="290" y="100" width="110" height="70" as="geometry" />
        </mxCell>
        <mxCell id="E_QFCJGcuhrLYFzaWxKr-20" value="&lt;font style=&quot;font-size: 18px;&quot;&gt;Зондируемая область&lt;/font&gt;" style="text;html=1;strokeColor=none;fillColor=none;align=center;verticalAlign=middle;whiteSpace=wrap;rounded=0;" vertex="1" parent="1">
          <mxGeometry x="395" y="410" width="130" height="30" as="geometry" />
        </mxCell>
      </root>
    </mxGraphModel>
  </diagram>
</mxfile>
